<?xml version="1.0" encoding="UTF-8"?><svg id="Layer_1" xmlns="http://www.w3.org/2000/svg" viewBox="0 0 1080 1080"><defs><style>.cls-1,.cls-2{fill:#3b85b7;}.cls-3{letter-spacing:.14em;}.cls-4{font-family:MyriadConceptRoman-Regular, 'Myriad Variable Concept';font-size:47.93px;font-variation-settings:'wght' 400, 'wdth' 100;}.cls-2{font-family:LEMONMILK-Medium, 'LEMON MILK';font-size:62.41px;font-weight:500;letter-spacing:.03em;}.cls-5{letter-spacing:.14em;}.cls-6{letter-spacing:.14em;}</style></defs><path class="cls-1" d="m184.81,303.49h-3.75s-18.74,0-18.74,0c-5.19,0-9.94-2.96-12.24-7.64l-4.36-8.91-1.23-2.52-3.44-7.01-.5-1.03-1.69-3.46c-.5-1.03-1.97-1.03-2.48,0l-10.86,22.15c-2.52,5.15-7.75,8.41-13.48,8.41h-11.1s-10.52,0-10.52,0c-1.02,0-1.69-1.07-1.23-1.99l31.83-64.95,16.49-33.65.04-.08.06.03.07-.03.04.08,2.83,5.76.5,1.03,13.16,26.85,6.86,14.02,1.24,2.52,15.36,31.34,1.23,2.52,7.13,14.55c.45.92-.21,1.99-1.23,1.99Z"/><path class="cls-1" d="m283.62,303.49h-9.61s-12.87,0-12.87,0c-5.2,0-9.94-2.96-12.24-7.64l-5.61-11.43-3.43-7.01-2.2-4.48c-.5-1.03-1.97-1.03-2.48,0l-6.86,14.02-4.37,8.92c-2.29,4.67-7.03,7.63-12.23,7.63-2.59,0-5.09-.74-7.21-2.07-2.12-1.32-3.88-3.23-5.03-5.57l-4.36-8.91-1.23-2.52-3.44-7.01-2.19-4.48c-.5-1.03-1.97-1.03-2.48,0l-2.7,5.52c-.5,1.03-1.97,1.03-2.48,0l-12.43-25.36-1.24-2.52-1.39-2.84c-.18-.39-.18-.83,0-1.22l4.88-9.96,16.49-33.65.04-.08.06.03.07-.03.04.08,3.33,6.8,13.16,26.85,6.87,14.02c.25.51.75.77,1.23.77s.98-.26,1.23-.77l6.87-14.02,16.49-33.65.04-.08.07.03.06-.03.04.08,3.33,6.8,13.16,26.85,6.87,14.02,16.59,33.86,8.37,17.07c.45.93-.21,1.99-1.23,1.99Z"/><text class="cls-4" transform="translate(320.18 303.83)"><tspan class="cls-5" x="0" y="0">G</tspan><tspan class="cls-3" x="37.67" y="0">R</tspan><tspan class="cls-6" x="70.4" y="0">APHIC DESIGNER</tspan></text><text class="cls-2" transform="translate(318.54 253.16)"><tspan x="0" y="0">AARON MORRISON</tspan></text></svg>